<svg width="123" height="89" viewBox="0 0 123 89" fill="none" xmlns="http://www.w3.org/2000/svg">
<path d="M21.7851 3.0167L6.44685 14.2071C1.53064 17.7938 -0.869869 23.8987 0.28667 29.8733L3.31315 45.508C4.32445 50.7324 7.91336 55.0888 12.8475 57.0814L87.2493 87.1279C92.8187 89.377 99.1831 88.2514 103.643 84.2284L116.876 72.292C121.006 68.5671 122.857 62.9353 121.742 57.4868L118.286 40.6032C117.218 35.3844 113.577 31.0632 108.614 29.1263L36.7464 1.07468C31.7547 -0.873689 26.114 -0.141509 21.7851 3.0167Z" fill="#CA7B50"/>
<path d="M33.509 20.8989C35.7275 21.7779 37.4786 22.9557 38.7622 24.4325C40.0731 25.8975 40.8521 27.5683 41.0992 29.445C41.3658 31.3293 41.0867 33.3126 40.2616 35.3949C39.4366 37.4772 38.2817 39.1135 36.7969 40.3039C35.3392 41.4826 33.6311 42.1568 31.6726 42.3264C29.7413 42.4844 27.6663 42.1238 25.4478 41.2449L19.1135 38.7351L27.1746 18.3892L33.509 20.8989ZM26.3153 39.0555C28.9424 40.0964 31.2206 40.1998 33.1497 39.3655C35.0865 38.5118 36.5523 36.8297 37.5469 34.3193C38.5492 31.7894 38.6313 29.5366 37.793 27.5609C36.9741 25.5928 35.2608 24.0922 32.6531 23.059L28.9751 21.6018L22.6372 37.5983L26.3153 39.0555Z" fill="#FFF8F2"/>
<path d="M50.4652 51.1568L48.9157 40.9176L45.7047 39.6454L42.4086 47.9648L39.7522 46.9123L47.8134 26.5663L54.3813 29.1686C55.9187 29.7777 57.1087 30.5531 57.9514 31.4949C58.8135 32.4444 59.33 33.4709 59.5007 34.5742C59.6715 35.6776 59.5294 36.8034 59.0745 37.9515C58.5194 39.3527 57.6211 40.4265 56.3797 41.173C55.1577 41.9272 53.6698 42.1595 51.9158 41.8698L53.647 52.4175L50.4652 51.1568ZM46.549 37.5145L50.4606 39.0642C51.9007 39.6348 53.1195 39.7124 54.1171 39.2971C55.1224 38.8624 55.8603 38.0515 56.3306 36.8644C56.8086 35.6578 56.8187 34.5811 56.3608 33.6341C55.9224 32.6949 54.9734 31.9362 53.5139 31.3579L49.6023 29.8081L46.549 37.5145Z" fill="#FFF8F2"/>
<path d="M68.2293 34.6552L60.1682 55.0012L57.5118 53.9487L65.573 33.6028L68.2293 34.6552Z" fill="#FFF8F2"/>
<path d="M89.5705 43.1107L73.8322 60.4149L70.7672 59.2005L71.1511 35.8128L73.9826 36.9347L73.4246 57.0112L86.7682 42.0004L89.5705 43.1107Z" fill="#FFF8F2"/>
<path d="M94.2837 47.4773L91.589 54.2787L99.0034 57.2163L98.136 59.4056L90.7215 56.468L87.9458 63.4738L96.236 66.7584L95.3686 68.9477L84.4221 64.6106L92.4948 44.2355L103.441 48.5725L102.574 50.7618L94.2837 47.4773Z" fill="#FFF8F2"/>
</svg>
