<svg width="53" height="64" viewBox="0 0 53 64" fill="none" xmlns="http://www.w3.org/2000/svg">
<path d="M3.19695 62.6203L3.17437 61.4264L3.19695 62.6203ZM1.34629 59.9086L0.242714 59.4524L1.34629 59.9086ZM50.7788 58.9737L51.8643 58.4761L51.8643 58.4761L50.7788 58.9737ZM49.032 61.7535L49.0546 62.9474L49.032 61.7535ZM26.8665 6.8075L25.781 7.30509L25.781 7.30509L26.8665 6.8075ZM23.269 6.87553L22.1655 6.41934L23.269 6.87553ZM26.3721 25.8051C26.3707 25.1456 25.835 24.612 25.1755 24.6133C24.516 24.6147 23.9824 25.1504 23.9838 25.8099L25.1779 25.8075L26.3721 25.8051ZM23.8579 0.745606C23.5838 0.145771 22.8753 -0.118255 22.2754 0.155887C21.6756 0.430028 21.4116 1.13853 21.6857 1.73836L22.7718 1.24198L23.8579 0.745606ZM28.3838 1.66277C28.6425 1.05609 28.3603 0.354609 27.7537 0.0959678C27.147 -0.162673 26.4455 0.119468 26.1869 0.726147L27.2853 1.19446L28.3838 1.66277ZM26.8665 6.8075L25.781 7.30509L49.6933 59.4713L50.7788 58.9737L51.8643 58.4761L27.9521 6.3099L26.8665 6.8075ZM49.032 61.7535L49.0094 60.5596L3.17437 61.4264L3.19695 62.6203L3.21953 63.8143L49.0546 62.9474L49.032 61.7535ZM1.34629 59.9086L2.44987 60.3648L24.3726 7.33173L23.269 6.87553L22.1655 6.41934L0.242714 59.4524L1.34629 59.9086ZM3.19695 62.6203L3.17437 61.4264C2.62095 61.4369 2.23841 60.8763 2.44987 60.3648L1.34629 59.9086L0.242714 59.4524C-0.626122 61.5542 0.94564 63.8573 3.21953 63.8143L3.19695 62.6203ZM50.7788 58.9737L49.6933 59.4713C49.9239 59.9745 49.5628 60.5491 49.0094 60.5596L49.032 61.7535L49.0546 62.9474C51.3285 62.9044 52.812 60.5436 51.8643 58.4761L50.7788 58.9737ZM26.8665 6.8075L27.9521 6.3099C26.8032 3.80354 23.2188 3.87133 22.1655 6.41934L23.269 6.87553L24.3726 7.33173C24.629 6.71158 25.5014 6.69509 25.781 7.30509L26.8665 6.8075ZM25.2522 62.3398L26.4463 62.3374L26.3721 25.8051L25.1779 25.8075L23.9838 25.8099L24.058 62.3423L25.2522 62.3398ZM27.8791 12.4171L28.9652 11.9207L23.8579 0.745606L22.7718 1.24198L21.6857 1.73836L26.793 12.9135L27.8791 12.4171ZM22.4897 12.4433L23.5882 12.9116L28.3838 1.66277L27.2853 1.19446L26.1869 0.726147L21.3912 11.975L22.4897 12.4433Z" fill="#F7E8D3"/>
</svg>
