<svg width="1321" height="1321" viewBox="0 0 1321 1321" fill="none" xmlns="http://www.w3.org/2000/svg">
<g clip-path="url(#clip0_52_482)">
<path d="M168.781 331.483C120.653 331.483 57.1872 590.987 50.3118 601.579C14.3479 636.32 -332.907 957.823 -368.871 969.65H1046.72C842.575 680.489 771.705 498.307 771.705 498.307C771.705 498.307 690.786 262.635 666.986 214.441C643.186 166.248 637.898 247.277 603.52 226.622C569.143 205.968 534.766 303.944 519.428 331.483C504.091 359.022 488.224 401.92 472.887 331.483C457.549 261.046 462.309 156.185 412.595 163.07C362.88 169.955 321.628 345.252 321.628 473.945C321.628 602.638 292.539 616.937 292.539 558.152C292.539 499.366 261.864 501.484 241.238 487.715C220.611 473.945 216.909 331.483 168.781 331.483Z" fill="#CA7B50"/>
<path d="M392.828 801.128C8.58952 908.152 35.6833 1619.83 97.26 1704.67L1839.11 1781C1757.98 1687.93 1879.89 440.952 1045.9 440.952C894.643 440.952 873.126 667.349 392.828 801.128Z" fill="#87A48E"/>
<path d="M639.41 1038.6C832.815 966.294 820.966 820.564 752.651 739.917C737.615 722.167 744.821 690.279 767.935 692.819C950.4 712.87 1068.73 980.296 1158.38 1152.37C1167.11 1169.13 1155.04 1208.52 1136.16 1208.52H726.256C698.479 1208.52 526.704 1103.57 547.926 1085.64C564.741 1071.43 593.509 1055.76 639.41 1038.6Z" fill="#C9D8DC"/>
<path d="M808.199 996.659C948.782 971.061 952.987 776.934 870.508 675.706C855.103 656.799 863.13 620.492 887.501 621.092C1201.54 628.825 1715.7 951.553 1879.89 1153C1892.3 1168.22 1880.8 1781 1861.18 1781L582.068 1742.83L453.506 1231.33C450.136 1217.92 435.89 1209.29 427.507 1198.29C426.339 1196.76 425.326 1195.09 424.498 1193.3C381.011 1099.53 317.706 1030.23 457.689 1012.93C605.061 994.705 638.36 1027.58 808.199 996.659Z" fill="#A5C4C9"/>
<path d="M588.827 1714.76C336.008 771.105 113.082 808.503 -150.401 846.945C-413.884 885.388 -635.458 1772.01 -635.458 1772.01L588.827 1714.76Z" fill="#F7E8D3"/>
<path d="M384.057 1073.94C362.636 1013.5 487.118 1004.47 552.843 1007.41C353.233 1036.85 625.109 1139.68 677.586 1169.55C1016.89 1362.69 1515.2 1676.6 1515.2 1676.6C1515.2 1676.6 716.51 1733.06 656.789 1733.85C645.429 1733.85 410.834 1149.49 384.057 1073.94Z" fill="#ABAAAA"/>
<path d="M287.703 1097.4C266.129 1037.01 353.671 1008.21 496.437 1008.21C339.701 1020.52 385.958 1071.94 438.008 1125.01C481.689 1169.55 927.921 1702.67 975.864 1714.76C922.473 1714.44 399.46 1733.85 399.46 1733.85C399.46 1733.85 314.671 1172.9 287.703 1097.4Z" fill="#C5C5C5"/>
<path d="M996.238 218.651C996.238 246.675 973.534 269.394 945.529 269.394C917.523 269.394 894.82 246.675 894.82 218.651C894.82 190.626 917.523 167.908 945.529 167.908C973.534 167.908 996.238 190.626 996.238 218.651Z" fill="#FFB653"/>
<path d="M960.437 87L949.128 137.52L936.564 138.225L938.882 87.294L960.437 87Z" fill="#FFB653"/>
<path d="M931.907 350.385L943.215 299.864L955.779 299.16L953.461 350.091L931.907 350.385Z" fill="#FFB653"/>
<path d="M1079.63 228.754L1028.06 224.635L1025.6 212.285L1076.32 207.439L1079.63 228.754Z" fill="#FFB653"/>
<path d="M809.869 208.475L861.328 213.836L863.489 226.242L812.668 229.863L809.869 208.475Z" fill="#FFB653"/>
<path d="M860.292 116.426L889.035 159.474L880.876 169.061L845.633 132.242L860.292 116.426Z" fill="#FFB653"/>
<path d="M1031.13 318.813L1002.39 275.766L1010.55 266.179L1045.79 302.997L1031.13 318.813Z" fill="#FFB653"/>
<path d="M1045.07 127.892L1006.51 162.406L995.877 155.667L1027.37 115.586L1045.07 127.892Z" fill="#FFB653"/>
<path d="M844.28 309.301L883.663 275.726L894.128 282.72L861.684 322.03L844.28 309.301Z" fill="#FFB653"/>
<path d="M298.961 856.71C300.428 846.213 309.4 838.403 319.993 838.403H460.904C471.496 838.403 480.468 846.213 481.936 856.71L493.692 940.829C495.479 953.611 485.559 965.023 472.66 965.023H308.236C295.337 965.023 285.417 953.611 287.204 940.829L298.961 856.71Z" fill="white"/>
<path d="M316.418 828.307H321.851V839.956H316.418V828.307Z" fill="white"/>
<path d="M459.219 828.307H464.652V839.956H459.219V828.307Z" fill="white"/>
<path d="M311.762 829.083V823.647H468.532V829.083H311.762Z" fill="white"/>
<path d="M286.287 935.521C286.441 928.297 292.337 922.521 299.557 922.521H481.513C488.734 922.521 494.629 928.297 494.783 935.521L496.873 1033.81C497.031 1041.25 491.044 1047.37 483.603 1047.37H297.468C290.027 1047.37 284.039 1041.25 284.198 1033.81L286.287 935.521Z" fill="#98CEDC"/>
<path d="M321.851 877.363C321.851 869.538 328.189 863.195 336.008 863.195H444.847C452.666 863.195 459.004 869.538 459.004 877.363V898.614C459.004 906.438 452.666 912.781 444.847 912.781H336.008C328.189 912.781 321.851 906.438 321.851 898.614V877.363Z" fill="#F5F5F5"/>
<path d="M309.128 1030.55C316.214 1030.55 321.958 1036.3 321.958 1043.39V1059.32C321.958 1066.42 316.214 1072.16 309.128 1072.16C302.041 1072.16 296.297 1066.42 296.297 1059.32V1043.39C296.297 1036.3 302.041 1030.55 309.128 1030.55Z" fill="#2C2C2C"/>
<path d="M471.942 1030.55C479.028 1030.55 484.773 1036.3 484.773 1043.39V1059.32C484.773 1066.42 479.028 1072.16 471.942 1072.16C464.856 1072.16 459.112 1066.42 459.112 1059.32V1043.39C459.112 1036.3 464.856 1030.55 471.942 1030.55Z" fill="#2C2C2C"/>
<path d="M330.388 980.941C330.388 977.029 333.557 973.857 337.467 973.857H443.603C447.513 973.857 450.682 977.029 450.682 980.941V1008.71C450.682 1012.62 447.513 1015.79 443.603 1015.79H337.467C333.557 1015.79 330.388 1012.62 330.388 1008.71V980.941Z" fill="white" fill-opacity="0.25"/>
<path d="M277.715 1037.19C277.715 1031.56 282.271 1027.01 287.891 1027.01H493.179C498.799 1027.01 503.355 1031.56 503.355 1037.19C503.355 1042.81 498.799 1047.37 493.179 1047.37H287.891C282.271 1047.37 277.715 1042.81 277.715 1037.19Z" fill="white"/>
<path d="M298.009 981.627C298.009 977.157 301.63 973.534 306.096 973.534C310.563 973.534 314.184 977.157 314.184 981.627V1007.94C314.184 1012.41 310.563 1016.04 306.096 1016.04C301.63 1016.04 298.009 1012.41 298.009 1007.94V981.627Z" fill="#A34146"/>
<path d="M468.656 981.627C468.656 977.157 472.277 973.534 476.743 973.534C481.21 973.534 484.831 977.157 484.831 981.627V1007.94C484.831 1012.41 481.21 1016.04 476.743 1016.04C472.277 1016.04 468.656 1012.41 468.656 1007.94V981.627Z" fill="#A34146"/>
</g>
<defs>
<clipPath id="clip0_52_482">
<rect width="1321" height="1321" rx="660.5" fill="white"/>
</clipPath>
</defs>
</svg>
