<svg width="569" height="264" viewBox="0 0 569 264" fill="none" xmlns="http://www.w3.org/2000/svg">
<path d="M3.86145 127V125.069L6.56447 124.297C11.0695 123.01 13.322 119.856 13.322 114.836V54.4047C13.322 51.573 12.8715 49.5136 11.9705 48.2264C11.0695 46.8105 9.33184 45.8452 6.75754 45.3303L3.86145 44.558V42.6273L36.8769 31.4291L38.8076 33.3598L40.3522 44.9442C44.8572 40.954 49.9414 37.6718 55.6049 35.0975C61.2684 32.5232 66.8675 31.236 72.4022 31.236C80.8974 31.236 87.3975 33.5529 91.9025 38.1866C96.5363 42.8204 98.8531 49.8997 98.8531 59.4246V115.03C98.8531 120.049 101.299 123.203 106.19 124.49L107.928 125.069V127H62.3624V125.069L64.8724 124.297C69.3774 122.881 71.6299 119.728 71.6299 114.836V53.2463C71.6299 45.0085 67.511 40.8897 59.2733 40.8897C53.6098 40.8897 47.4315 43.7214 40.7383 49.3848V115.03C40.7383 120.049 42.9908 123.203 47.4958 124.49L49.2335 125.069V127H3.86145ZM142.539 129.896C135.073 129.896 128.766 127.772 123.618 123.525C118.598 119.277 116.088 113.163 116.088 105.183C116.088 99.1332 119.177 93.5985 125.355 88.5786C131.534 83.43 141.252 79.5685 154.509 76.9942C156.569 76.6081 158.886 76.2219 161.46 75.8358C164.034 75.3209 166.737 74.8061 169.569 74.2912V59.0385C169.569 50.2858 168.475 44.1719 166.287 40.6966C164.227 37.0926 160.945 35.2905 156.44 35.2905C153.351 35.2905 150.905 36.3203 149.103 38.3797C147.301 40.3104 146.143 43.7214 145.628 48.6126L145.242 50.7364C144.984 56.2711 143.633 60.3256 141.187 62.8999C138.742 65.4742 135.717 66.7614 132.113 66.7614C128.766 66.7614 125.999 65.7317 123.811 63.6722C121.623 61.6128 120.529 58.8454 120.529 55.3701C120.529 50.0928 122.331 45.6521 125.935 42.0481C129.667 38.4441 134.558 35.741 140.608 33.939C146.658 32.137 153.222 31.236 160.301 31.236C171.757 31.236 180.574 34.0678 186.752 39.7312C193.059 45.266 196.213 54.3404 196.213 66.9544V109.623C196.213 115.416 198.916 118.312 204.322 118.312H208.57L210.307 119.856C207.862 122.945 205.159 125.327 202.198 127C199.366 128.673 195.312 129.51 190.035 129.51C184.371 129.51 179.866 128.223 176.52 125.648C173.302 122.945 171.178 119.406 170.148 115.03C166.287 119.148 162.297 122.688 158.178 125.648C154.188 128.48 148.975 129.896 142.539 129.896ZM154.316 118.119C156.891 118.119 159.272 117.539 161.46 116.381C163.777 115.094 166.48 113.163 169.569 110.589V78.1526C168.282 78.4101 166.995 78.6675 165.708 78.9249C164.42 79.1824 162.94 79.4398 161.267 79.6972C155.346 81.2418 150.583 83.8805 146.979 87.6132C143.504 91.2172 141.767 96.1084 141.767 102.287C141.767 107.564 142.989 111.554 145.435 114.257C147.88 116.832 150.841 118.119 154.316 118.119ZM250.964 129.896C242.726 129.896 236.291 127.837 231.657 123.718C227.152 119.599 224.899 113.034 224.899 104.024V37.9936H211.577V36.0628L216.211 35.2905C220.201 34.3895 223.612 33.1024 226.444 31.4291C229.404 29.7558 232.3 27.5033 235.132 24.6716L250.964 7.10195H252.895L252.316 34.1321H273.94V37.9936H252.123V107.5C252.123 112.005 253.088 115.416 255.019 117.733C257.078 120.049 259.652 121.208 262.742 121.208C265.445 121.208 267.826 120.564 269.885 119.277C271.945 117.861 274.004 115.995 276.064 113.678L277.994 115.609C275.42 119.985 271.88 123.46 267.375 126.035C262.87 128.609 257.4 129.896 250.964 129.896ZM317.858 129.896C312.838 129.896 308.204 128.931 303.956 127C299.838 125.069 296.555 121.98 294.11 117.733C291.793 113.356 290.699 107.628 290.828 100.549L291.407 50.9294C291.407 47.969 290.892 45.8452 289.862 44.558C288.832 43.2709 287.224 42.3699 285.035 41.855L282.719 41.0827V39.152L317.279 32.3945L319.209 34.3252L318.244 61.7415V108.272C318.244 112.391 319.402 115.416 321.719 117.346C324.165 119.277 327.19 120.242 330.794 120.242C334.398 120.242 337.615 119.728 340.447 118.698C343.279 117.668 346.111 116.124 348.942 114.064L349.715 51.1225C349.715 48.1621 349.264 46.1026 348.363 44.9442C347.462 43.657 345.789 42.756 343.343 42.2412L341.413 41.6619V39.7312L375.2 32.3945L377.131 34.3252L376.552 61.7415V114.064C376.552 116.896 376.938 119.084 377.71 120.629C378.482 122.173 380.156 123.46 382.73 124.49L384.661 125.069V127L350.873 128.931L349.135 117.539C344.888 121.015 340.254 123.975 335.234 126.421C330.343 128.738 324.551 129.896 317.858 129.896ZM392.458 127V125.069L395.354 124.297C397.928 123.525 399.666 122.366 400.567 120.822C401.596 119.277 402.111 117.282 402.111 114.836V54.4047C402.111 51.573 401.596 49.5136 400.567 48.2264C399.666 46.8105 397.928 45.8452 395.354 45.3303L392.458 44.558V42.6273L425.666 31.4291L427.597 33.3598L429.334 49.9641V51.5086C431.136 47.9046 433.453 44.6224 436.285 41.6619C439.246 38.5728 442.463 36.0628 445.939 34.1321C449.543 32.2014 453.082 31.236 456.558 31.236C461.449 31.236 465.182 32.5875 467.756 35.2905C470.33 37.9936 471.617 41.4045 471.617 45.5234C471.617 49.8997 470.33 53.3107 467.756 55.7562C465.31 58.0731 462.35 59.2315 458.875 59.2315C453.469 59.2315 448.706 56.5285 444.587 51.1225L444.201 50.7364C442.914 48.9343 441.434 47.969 439.76 47.8403C438.087 47.5828 436.543 48.3551 435.127 50.1571C433.839 51.3156 432.745 52.7314 431.844 54.4047C431.072 55.9493 430.3 57.7513 429.528 59.8108V113.678C429.528 118.827 431.78 122.044 436.285 123.332L442.463 125.069V127H392.458ZM523.125 31.236C531.492 31.236 538.636 32.9737 544.557 36.449C550.477 39.7956 554.982 44.4293 558.072 50.3502C561.289 56.1424 562.898 62.7712 562.898 70.2367C562.898 71.6525 562.834 73.1328 562.705 74.6773C562.577 76.0932 562.319 77.3804 561.933 78.5388H504.397C504.526 92.44 506.972 102.48 511.734 108.658C516.625 114.708 523.833 117.733 533.358 117.733C539.794 117.733 545.007 116.703 548.997 114.643C552.987 112.584 556.72 109.559 560.195 105.569L562.126 107.307C558.136 114.386 552.794 119.921 546.101 123.911C539.537 127.901 531.621 129.896 522.353 129.896C513.214 129.896 505.105 127.965 498.026 124.104C490.947 120.114 485.412 114.45 481.422 107.114C477.432 99.7768 475.437 91.0242 475.437 80.8557C475.437 70.301 477.753 61.3553 482.387 54.0186C487.021 46.5531 492.942 40.8897 500.15 37.0282C507.487 33.1667 515.145 31.236 523.125 31.236ZM522.546 35.0975C518.814 35.0975 515.596 36.2559 512.893 38.5728C510.318 40.7609 508.259 44.7511 506.714 50.5433C505.298 56.2067 504.526 64.2514 504.397 74.6773H537.413C538.7 60.6474 538.185 50.5433 535.868 44.365C533.551 38.1866 529.111 35.0975 522.546 35.0975Z" fill="#FFF8F2"/>
<circle cx="16.2921" cy="16.2921" r="16.2921" transform="matrix(-1 0 0 1 138.781 207.493)" fill="#87A48E"/>
<circle cx="16.2921" cy="16.2921" r="16.2921" transform="matrix(-1 0 0 1 71.7301 207.493)" fill="#87A48E"/>
<path d="M215.861 261V259.069L218.757 258.297C221.331 257.525 223.069 256.366 223.97 254.822C225 253.277 225.515 251.282 225.515 248.836V188.405C225.515 185.573 225 183.514 223.97 182.226C223.069 180.811 221.331 179.845 218.757 179.33L215.861 178.558V176.627L249.069 165.429L251 167.36L252.738 183.964V185.509C254.54 181.905 256.857 178.622 259.688 175.662C262.649 172.573 265.867 170.063 269.342 168.132C272.946 166.201 276.486 165.236 279.961 165.236C284.852 165.236 288.585 166.588 291.159 169.291C293.734 171.994 295.021 175.405 295.021 179.523C295.021 183.9 293.734 187.311 291.159 189.756C288.714 192.073 285.753 193.232 282.278 193.232C276.872 193.232 272.109 190.529 267.991 185.122L267.604 184.736C266.317 182.934 264.837 181.969 263.164 181.84C261.49 181.583 259.946 182.355 258.53 184.157C257.243 185.316 256.149 186.731 255.248 188.405C254.475 189.949 253.703 191.751 252.931 193.811V247.678C252.931 252.827 255.183 256.044 259.688 257.332L265.867 259.069V261H215.861ZM346.915 263.896C337.133 263.896 328.637 261.901 321.429 257.911C314.221 253.792 308.622 248 304.632 240.534C300.771 233.069 298.84 224.316 298.84 214.276C298.84 204.237 300.899 195.548 305.018 188.212C309.266 180.875 314.994 175.211 322.202 171.221C329.538 167.231 337.776 165.236 346.915 165.236C356.054 165.236 364.227 167.231 371.435 171.221C378.643 175.083 384.307 180.682 388.426 188.019C392.673 195.355 394.797 204.108 394.797 214.276C394.797 224.445 392.802 233.262 388.812 240.727C384.95 248.064 379.416 253.792 372.207 257.911C365.128 261.901 356.697 263.896 346.915 263.896ZM346.915 260.035C351.42 260.035 355.024 258.747 357.727 256.173C360.43 253.599 362.361 249.03 363.519 242.465C364.806 235.901 365.45 226.633 365.45 214.663C365.45 202.563 364.806 193.232 363.519 186.667C362.361 180.103 360.43 175.533 357.727 172.959C355.024 170.385 351.42 169.097 346.915 169.097C342.41 169.097 338.742 170.385 335.91 172.959C333.207 175.533 331.212 180.103 329.925 186.667C328.766 193.232 328.187 202.563 328.187 214.663C328.187 226.633 328.766 235.901 329.925 242.465C331.212 249.03 333.207 253.599 335.91 256.173C338.742 258.747 342.41 260.035 346.915 260.035ZM439.207 263.896C430.969 263.896 424.533 261.837 419.899 257.718C415.394 253.599 413.142 247.034 413.142 238.024V171.994H399.82V170.063L404.454 169.291C408.444 168.39 411.855 167.102 414.686 165.429C417.647 163.756 420.543 161.503 423.375 158.672L439.207 141.102H441.137L440.558 168.132H462.182V171.994H440.365V241.5C440.365 246.005 441.33 249.416 443.261 251.733C445.321 254.049 447.895 255.208 450.984 255.208C453.687 255.208 456.068 254.564 458.128 253.277C460.187 251.861 462.247 249.995 464.306 247.678L466.237 249.609C463.663 253.985 460.123 257.46 455.618 260.035C451.113 262.609 445.642 263.896 439.207 263.896ZM500.474 263.896C493.009 263.896 486.701 261.772 481.553 257.525C476.533 253.277 474.023 247.163 474.023 239.183C474.023 233.133 477.112 227.598 483.291 222.579C489.469 217.43 499.187 213.569 512.444 210.994C514.504 210.608 516.821 210.222 519.395 209.836C521.969 209.321 524.672 208.806 527.504 208.291V193.038C527.504 184.286 526.41 178.172 524.222 174.697C522.162 171.093 518.88 169.291 514.375 169.291C511.286 169.291 508.84 170.32 507.038 172.38C505.236 174.31 504.078 177.721 503.563 182.613L503.177 184.736C502.92 190.271 501.568 194.326 499.122 196.9C496.677 199.474 493.652 200.761 490.048 200.761C486.701 200.761 483.934 199.732 481.746 197.672C479.558 195.613 478.464 192.845 478.464 189.37C478.464 184.093 480.266 179.652 483.87 176.048C487.602 172.444 492.494 169.741 498.543 167.939C504.593 166.137 511.157 165.236 518.237 165.236C529.692 165.236 538.509 168.068 544.688 173.731C550.995 179.266 554.148 188.34 554.148 200.954V243.623C554.148 249.416 556.851 252.312 562.257 252.312H566.505L568.242 253.856C565.797 256.945 563.094 259.327 560.133 261C557.302 262.673 553.247 263.51 547.97 263.51C542.306 263.51 537.801 262.223 534.455 259.648C531.237 256.945 529.113 253.406 528.083 249.03C524.222 253.148 520.232 256.688 516.113 259.648C512.123 262.48 506.91 263.896 500.474 263.896ZM512.251 252.119C514.826 252.119 517.207 251.539 519.395 250.381C521.712 249.094 524.415 247.163 527.504 244.589V212.153C526.217 212.41 524.93 212.668 523.643 212.925C522.356 213.182 520.875 213.44 519.202 213.697C513.281 215.242 508.519 217.88 504.915 221.613C501.439 225.217 499.702 230.108 499.702 236.287C499.702 241.564 500.924 245.554 503.37 248.257C505.816 250.832 508.776 252.119 512.251 252.119Z" fill="#FFF8F2"/>
</svg>
