<svg width="2475" height="1163" viewBox="0 0 2475 1163" fill="none" xmlns="http://www.w3.org/2000/svg">
<path d="M16.8049 555V546.598L28.5683 543.237C48.174 537.635 57.9769 523.911 57.9769 502.065V239.068C57.9769 226.745 56.0163 217.782 52.0951 212.18C48.174 206.019 40.6118 201.817 29.4085 199.577L16.8049 196.216V187.813L160.487 139.079L168.889 147.482L175.611 197.896C195.217 180.531 217.343 166.247 241.99 155.044C266.637 143.841 291.005 138.239 315.092 138.239C352.062 138.239 380.351 148.322 399.956 168.488C420.122 188.654 430.205 219.462 430.205 260.915V502.905C430.205 524.751 440.848 538.475 462.134 544.077L469.696 546.598V555H271.399V546.598L282.322 543.237C301.928 537.075 311.731 523.351 311.731 502.065V234.027C311.731 198.176 293.805 180.251 257.955 180.251C233.308 180.251 206.42 192.575 177.292 217.222V502.905C177.292 524.751 187.094 538.475 206.7 544.077L214.262 546.598V555H16.8049ZM620.323 567.604C587.834 567.604 560.386 558.361 537.979 539.876C516.133 521.39 505.21 494.783 505.21 460.052C505.21 433.725 518.654 409.638 545.542 387.791C572.429 365.385 614.722 348.58 672.419 337.377C681.381 335.696 691.464 334.016 702.667 332.335C713.871 330.095 725.634 327.854 737.958 325.613V259.234C737.958 221.143 733.196 194.535 723.673 179.411C714.711 163.726 700.427 155.884 680.821 155.884C667.377 155.884 656.734 160.365 648.892 169.328C641.049 177.73 636.008 192.575 633.767 213.861L632.087 223.104C630.966 247.191 625.085 264.836 614.442 276.039C603.799 287.242 590.635 292.844 574.95 292.844C560.386 292.844 548.342 288.363 538.82 279.4C529.297 270.437 524.536 258.394 524.536 243.269C524.536 220.303 532.378 200.977 548.062 185.293C564.307 169.608 585.593 157.845 611.921 150.002C638.249 142.16 666.817 138.239 697.626 138.239C747.48 138.239 785.851 150.562 812.739 175.21C840.187 199.297 853.911 238.788 853.911 293.684V479.378C853.911 504.585 865.675 517.189 889.202 517.189H907.687L915.249 523.911C904.606 537.355 892.843 547.718 879.959 555C867.635 562.282 849.99 565.923 827.023 565.923C802.376 565.923 782.771 560.322 768.206 549.118C754.202 537.355 744.96 521.95 740.478 502.905C723.673 520.83 706.308 536.235 688.383 549.118C671.018 561.442 648.332 567.604 620.323 567.604ZM671.578 516.349C682.782 516.349 693.145 513.828 702.667 508.787C712.75 503.185 724.514 494.783 737.958 483.579V342.418C732.356 343.539 726.754 344.659 721.153 345.779C715.551 346.9 709.109 348.02 701.827 349.14C676.06 355.862 655.334 367.345 639.649 383.59C624.525 399.275 616.962 420.561 616.962 447.449C616.962 470.415 622.284 487.78 632.927 499.544C643.57 510.747 656.454 516.349 671.578 516.349ZM1092.19 567.604C1056.34 567.604 1028.33 558.641 1008.16 540.716C988.556 522.791 978.753 494.222 978.753 455.011V167.647H920.776V159.245L940.942 155.884C958.307 151.963 973.152 146.361 985.475 139.079C998.359 131.797 1010.96 121.994 1023.29 109.671L1092.19 33.2083H1100.59L1098.07 150.843H1192.18V167.647H1097.23V470.135C1097.23 489.741 1101.43 504.585 1109.83 514.668C1118.79 524.751 1130 529.793 1143.44 529.793C1155.2 529.793 1165.57 526.992 1174.53 521.39C1183.49 515.228 1192.46 507.106 1201.42 497.023L1209.82 505.426C1198.62 524.471 1183.21 539.596 1163.61 550.799C1144 562.002 1120.19 567.604 1092.19 567.604ZM1383.3 567.604C1361.46 567.604 1341.29 563.402 1322.81 555C1304.88 546.598 1290.6 533.154 1279.95 514.668C1269.87 495.623 1265.11 470.696 1265.67 439.887L1268.19 223.944C1268.19 211.06 1265.95 201.817 1261.47 196.216C1256.99 190.614 1249.99 186.693 1240.46 184.452L1230.38 181.091V172.689L1380.78 143.28L1389.19 151.683L1384.98 270.997V473.496C1384.98 491.422 1390.03 504.585 1400.11 512.988C1410.75 521.39 1423.92 525.591 1439.6 525.591C1455.29 525.591 1469.29 523.351 1481.61 518.87C1493.94 514.388 1506.26 507.666 1518.58 498.704L1521.94 224.784C1521.94 211.9 1519.98 202.938 1516.06 197.896C1512.14 192.295 1504.86 188.373 1494.22 186.133L1485.81 183.612V175.21L1632.86 143.28L1641.26 151.683L1638.74 270.997V498.704C1638.74 511.027 1640.42 520.55 1643.78 527.272C1647.14 533.994 1654.42 539.596 1665.63 544.077L1674.03 546.598V555L1526.99 563.402L1519.42 513.828C1500.94 528.952 1480.77 541.836 1458.93 552.479C1437.64 562.562 1412.43 567.604 1383.3 567.604ZM1707.96 555V546.598L1720.56 543.237C1731.77 539.876 1739.33 534.834 1743.25 528.112C1747.73 521.39 1749.97 512.708 1749.97 502.065V239.068C1749.97 226.745 1747.73 217.782 1743.25 212.18C1739.33 206.019 1731.77 201.817 1720.56 199.577L1707.96 196.216V187.813L1852.48 139.079L1860.88 147.482L1868.45 219.743V226.465C1876.29 210.78 1886.37 196.496 1898.7 183.612C1911.58 170.168 1925.58 159.245 1940.71 150.843C1956.39 142.44 1971.8 138.239 1986.92 138.239C2008.21 138.239 2024.45 144.121 2035.66 155.884C2046.86 167.647 2052.46 182.492 2052.46 200.417C2052.46 219.462 2046.86 234.307 2035.66 244.95C2025.01 255.033 2012.13 260.074 1997 260.074C1973.48 260.074 1952.75 248.311 1934.83 224.784L1933.15 223.104C1927.54 215.261 1921.1 211.06 1913.82 210.5C1906.54 209.38 1899.82 212.741 1893.65 220.583C1888.05 225.624 1883.29 231.786 1879.37 239.068C1876.01 245.79 1872.65 253.632 1869.29 262.595V497.023C1869.29 519.43 1879.09 533.434 1898.7 539.035L1925.58 546.598V555H1707.96ZM2276.62 138.239C2313.03 138.239 2344.12 145.801 2369.89 160.925C2395.66 175.49 2415.26 195.656 2428.71 221.423C2442.71 246.63 2449.71 275.479 2449.71 307.968C2449.71 314.13 2449.43 320.572 2448.87 327.294C2448.31 333.456 2447.19 339.057 2445.51 344.099H2195.12C2195.68 404.596 2206.32 448.289 2227.05 475.177C2248.33 501.504 2279.7 514.668 2321.15 514.668C2349.16 514.668 2371.85 510.187 2389.21 501.224C2406.58 492.262 2422.82 479.098 2437.95 461.733L2446.35 469.295C2428.99 500.104 2405.74 524.191 2376.61 541.556C2348.04 558.921 2313.59 567.604 2273.26 567.604C2233.49 567.604 2198.2 559.201 2167.39 542.396C2136.58 525.031 2112.49 500.384 2095.13 468.455C2077.76 436.526 2069.08 398.435 2069.08 354.182C2069.08 308.248 2079.16 269.317 2099.33 237.388C2119.5 204.898 2145.26 180.251 2176.63 163.446C2208.56 146.641 2241.89 138.239 2276.62 138.239ZM2274.1 155.044C2257.86 155.044 2243.85 160.085 2232.09 170.168C2220.89 179.691 2211.92 197.056 2205.2 222.263C2199.04 246.91 2195.68 281.921 2195.12 327.294H2338.8C2344.4 266.236 2342.16 222.263 2332.08 195.375C2321.99 168.488 2302.67 155.044 2274.1 155.044Z" fill="#123A2B"/>
<path d="M16.8049 1150.15V1141.74L29.4085 1138.38C40.6118 1135.02 48.174 1129.98 52.0951 1123.26C56.5764 1116.54 58.8171 1107.85 58.8171 1097.21V834.215C58.8171 821.891 56.5764 812.929 52.0951 807.327C48.174 801.165 40.6118 796.964 29.4085 794.723L16.8049 791.362V782.96L161.327 734.226L169.729 742.628L177.292 814.889V821.611C185.134 805.927 195.217 791.643 207.54 778.759C220.424 765.315 234.428 754.392 249.553 745.989C265.237 737.587 280.642 733.386 295.766 733.386C317.052 733.386 333.297 739.267 344.5 751.031C355.703 762.794 361.305 777.638 361.305 795.564C361.305 814.609 355.703 829.454 344.5 840.097C333.857 850.18 320.973 855.221 305.849 855.221C282.322 855.221 261.596 843.458 243.671 819.931L241.99 818.25C236.389 810.408 229.947 806.207 222.665 805.647C215.383 804.526 208.661 807.887 202.499 815.73C196.897 820.771 192.136 826.933 188.215 834.215C184.854 840.937 181.493 848.779 178.132 857.742V1092.17C178.132 1114.58 187.935 1128.58 207.54 1134.18L234.428 1141.74V1150.15H16.8049ZM587.147 1162.75C544.574 1162.75 507.604 1154.07 476.235 1136.7C444.866 1118.78 420.498 1093.57 403.133 1061.08C386.328 1028.59 377.926 990.5 377.926 946.808C377.926 903.115 386.889 865.304 404.814 833.375C423.299 801.445 448.226 776.798 479.596 759.433C511.525 742.068 547.375 733.386 587.147 733.386C626.918 733.386 662.489 742.068 693.858 759.433C725.227 776.238 749.874 800.605 767.799 832.534C786.285 864.464 795.527 902.555 795.527 946.808C795.527 991.06 786.845 1029.43 769.48 1061.92C752.675 1093.85 728.588 1118.78 697.219 1136.7C666.41 1154.07 629.719 1162.75 587.147 1162.75ZM587.147 1145.95C606.753 1145.95 622.437 1140.34 634.201 1129.14C645.964 1117.94 654.366 1098.05 659.408 1069.48C665.009 1040.91 667.81 1000.58 667.81 948.488C667.81 895.833 665.009 855.221 659.408 826.653C654.366 798.084 645.964 778.199 634.201 766.995C622.437 755.792 606.753 750.191 587.147 750.191C567.541 750.191 551.577 755.792 539.253 766.995C527.49 778.199 518.807 798.084 513.205 826.653C508.164 855.221 505.643 895.833 505.643 948.488C505.643 1000.58 508.164 1040.91 513.205 1069.48C518.807 1098.05 527.49 1117.94 539.253 1129.14C551.577 1140.34 567.541 1145.95 587.147 1145.95ZM988.797 1162.75C952.946 1162.75 924.938 1153.79 904.772 1135.86C885.167 1117.94 875.364 1089.37 875.364 1050.16V762.794H817.387V754.392L837.553 751.031C854.918 747.11 869.762 741.508 882.086 734.226C894.969 726.944 907.573 717.141 919.897 704.817L988.797 628.355H997.199L994.678 745.989H1088.79V762.794H993.838V1065.28C993.838 1084.89 998.039 1099.73 1006.44 1109.82C1015.4 1119.9 1026.61 1124.94 1040.05 1124.94C1051.82 1124.94 1062.18 1122.14 1071.14 1116.54C1080.1 1110.38 1089.07 1102.25 1098.03 1092.17L1106.43 1100.57C1095.23 1119.62 1079.82 1134.74 1060.22 1145.95C1040.61 1157.15 1016.8 1162.75 988.797 1162.75ZM1255.43 1162.75C1222.94 1162.75 1195.49 1153.51 1173.09 1135.02C1151.24 1116.54 1140.32 1089.93 1140.32 1055.2C1140.32 1028.87 1153.76 1004.78 1180.65 982.938C1207.54 960.532 1249.83 943.727 1307.52 932.523C1316.49 930.843 1326.57 929.163 1337.77 927.482C1348.98 925.241 1360.74 923.001 1373.06 920.76V854.381C1373.06 816.29 1368.3 789.682 1358.78 774.558C1349.82 758.873 1335.53 751.031 1315.93 751.031C1302.48 751.031 1291.84 755.512 1284 764.475C1276.16 772.877 1271.11 787.721 1268.87 809.008L1267.19 818.25C1266.07 842.337 1260.19 859.982 1249.55 871.186C1238.9 882.389 1225.74 887.991 1210.06 887.991C1195.49 887.991 1183.45 883.509 1173.93 874.547C1164.4 865.584 1159.64 853.541 1159.64 838.416C1159.64 815.449 1167.48 796.124 1183.17 780.439C1199.41 764.755 1220.7 752.991 1247.03 745.149C1273.35 737.307 1301.92 733.386 1332.73 733.386C1382.59 733.386 1420.96 745.709 1447.85 770.356C1475.29 794.443 1489.02 833.935 1489.02 888.831V1074.52C1489.02 1099.73 1500.78 1112.34 1524.31 1112.34H1542.79L1550.36 1119.06C1539.71 1132.5 1527.95 1142.86 1515.07 1150.15C1502.74 1157.43 1485.1 1161.07 1462.13 1161.07C1437.48 1161.07 1417.88 1155.47 1403.31 1144.27C1389.31 1132.5 1380.07 1117.1 1375.58 1098.05C1358.78 1115.98 1341.41 1131.38 1323.49 1144.27C1306.12 1156.59 1283.44 1162.75 1255.43 1162.75ZM1306.68 1111.5C1317.89 1111.5 1328.25 1108.97 1337.77 1103.93C1347.86 1098.33 1359.62 1089.93 1373.06 1078.73V937.565C1367.46 938.685 1361.86 939.806 1356.26 940.926C1350.66 942.046 1344.22 943.167 1336.93 944.287C1311.17 951.009 1290.44 962.492 1274.76 978.737C1259.63 994.421 1252.07 1015.71 1252.07 1042.6C1252.07 1065.56 1257.39 1082.93 1268.03 1094.69C1278.68 1105.89 1291.56 1111.5 1306.68 1111.5Z" fill="#123A2B"/>
<circle cx="70.9026" cy="70.9026" r="70.9026" transform="matrix(-1 0 0 1 2171.98 903.073)" fill="#87A48E"/>
<circle cx="70.9026" cy="70.9026" r="70.9026" transform="matrix(-1 0 0 1 1880.17 903.073)" fill="#87A48E"/>
</svg>
