<svg width="206" height="93" viewBox="0 0 206 93" fill="none" xmlns="http://www.w3.org/2000/svg">
<path d="M110.551 22.0391C112.813 8.34547 125.748 -0.921913 139.441 1.33984L183.492 8.61621C197.186 10.8781 206.453 23.8122 204.191 37.5059C201.93 51.1995 188.995 60.4666 175.302 58.2051L131.25 50.9297C117.556 48.6677 108.289 35.7327 110.551 22.0391Z" stroke="#CA7B50" stroke-width="2"/>
<path d="M144.655 16.2293L144.287 18.5234L138.397 17.5773L135.295 36.891L132.474 36.4379L135.576 17.1242L129.654 16.1732L130.023 13.8792L144.655 16.2293Z" fill="#CA7B50"/>
<path d="M156.035 40.2221L152.308 30.5603L148.898 30.0126L147.479 38.8479L144.657 38.3948L148.128 16.787L155.103 17.9073C156.736 18.1696 158.065 18.6693 159.092 19.4066C160.139 20.1472 160.865 21.0376 161.27 22.0779C161.676 23.1183 161.781 24.2481 161.585 25.4675C161.346 26.9556 160.701 28.1982 159.65 29.1955C158.62 30.1961 157.218 30.7447 155.443 30.8412L159.414 40.7649L156.035 40.2221ZM149.261 27.7495L153.415 28.4167C154.945 28.6623 156.151 28.4746 157.036 27.8533C157.923 27.2115 158.468 26.2602 158.671 24.9995C158.876 23.7181 158.653 22.6646 158.002 21.8391C157.37 21.0169 156.28 20.4814 154.73 20.2324L150.576 19.5652L149.261 27.7495Z" fill="#CA7B50"/>
<path d="M169.81 20.2694L166.34 41.8772L163.518 41.4241L166.989 19.8163L169.81 20.2694Z" fill="#CA7B50"/>
<path d="M188.049 29.6861C187.76 31.4842 186.899 32.883 185.467 33.8825C184.058 34.8647 182.093 35.1534 179.572 34.7484L175.418 34.0812L173.969 43.1025L171.148 42.6494L174.618 21.0416L181.593 22.1619C184.032 22.5536 185.787 23.4397 186.859 24.8203C187.951 26.2041 188.348 27.8261 188.049 29.6861ZM179.945 32.4233C181.516 32.6756 182.728 32.5205 183.582 31.9579C184.435 31.3954 184.963 30.4838 185.166 29.2231C185.594 26.557 184.279 24.9783 181.22 24.487L177.066 23.8198L175.791 31.7561L179.945 32.4233Z" fill="#CA7B50"/>
<path d="M9.03303 41.0714L1.34489 58.4317C-1.1193 63.996 -0.145795 70.4832 3.84312 75.0791L14.2815 87.1059C17.7695 91.1247 23.0558 93.103 28.3252 92.3616L107.782 81.1817C113.73 80.3448 118.679 76.1878 120.53 70.4738L126.022 53.52C127.736 48.2293 126.523 42.4266 122.833 38.2656L111.399 25.3717C107.864 21.3861 102.55 19.4647 97.284 20.2685L21.0188 31.9089C15.7217 32.7175 11.2028 36.1719 9.03303 41.0714Z" fill="#A4D0AF"/>
<path d="M35.968 72.8661L29.5064 64.7734L26.0895 65.2772L27.3947 74.13L24.568 74.5468L21.3761 52.8961L28.3652 51.8657C30.0012 51.6245 31.4195 51.7011 32.6202 52.0954C33.8416 52.4866 34.8021 53.1173 35.5017 53.9874C36.2012 54.8576 36.6411 55.9036 36.8212 57.1254C37.041 58.6164 36.8 59.9955 36.0981 61.2626C35.417 62.5268 34.2445 63.4719 32.5807 64.0981L39.3538 72.367L35.968 72.8661ZM25.7553 63.0096L29.9176 62.396C31.4501 62.17 32.5444 61.6279 33.2007 60.7694C33.854 59.8902 34.0875 58.819 33.9013 57.5558C33.712 56.2719 33.1824 55.3344 32.3123 54.7432C31.463 54.1491 30.2618 53.9665 28.7087 54.1954L24.5463 54.8091L25.7553 63.0096Z" fill="#123A2B"/>
<path d="M53.3143 70.531C51.3056 70.8272 49.4042 70.6314 47.6101 69.9438C45.813 69.2354 44.3042 68.1143 43.0836 66.5804C41.8807 65.0227 41.1235 63.1878 40.8121 61.0755C40.5007 58.9632 40.6977 56.9982 41.403 55.1804C42.1259 53.3388 43.247 51.83 44.7663 50.6538C46.2826 49.457 48.0451 48.7105 50.0538 48.4144C52.0832 48.1152 53.9965 48.3198 55.7936 49.0282C57.5877 49.7158 59.0846 50.8281 60.2845 52.3651C61.4844 53.902 62.2415 55.737 62.556 57.8699C62.8704 60.0029 62.675 61.9783 61.9697 63.7961C61.2644 65.6139 60.1536 67.1213 58.6374 68.3181C57.1181 69.4942 55.3437 70.2318 53.3143 70.531ZM52.9525 68.0771C54.4643 67.8542 55.7688 67.3022 56.866 66.421C57.984 65.5368 58.7886 64.392 59.2796 62.9867C59.7914 61.5782 59.9205 60.0146 59.6672 58.2958C59.4107 56.5563 58.8358 55.0965 57.9424 53.9164C57.0667 52.7125 55.9764 51.847 54.6715 51.32C53.3666 50.793 51.948 50.6424 50.4156 50.8684C48.8831 51.0943 47.5683 51.6478 46.471 52.529C45.3737 53.4101 44.5692 54.5549 44.0574 55.9633C43.5633 57.348 43.4445 58.9101 43.7009 60.6496C43.9543 62.3684 44.5189 63.8298 45.3946 65.0336C46.291 66.2345 47.3917 67.0984 48.6966 67.6254C50.0222 68.1494 51.4408 68.2999 52.9525 68.0771Z" fill="#123A2B"/>
<path d="M79.9738 61.4593L70.5308 62.8514L69.5011 67.9225L66.5191 68.3622L71.1734 45.6817L74.4349 45.2009L85.4052 65.5779L82.4232 66.0175L79.9738 61.4593ZM78.8273 59.2797L73.3015 48.9226L70.9995 60.4337L78.8273 59.2797Z" fill="#123A2B"/>
<path d="M92.3655 42.4305C94.7263 42.0825 96.8317 42.227 98.6818 42.8641C100.549 43.4774 102.06 44.5349 103.212 46.0365C104.385 47.5351 105.135 49.3923 105.461 51.6081C105.788 53.8239 105.606 55.8185 104.915 57.5918C104.242 59.3414 103.1 60.7793 101.489 61.9055C99.8953 63.008 97.9181 63.7332 95.5573 64.0812L88.8167 65.075L85.6249 43.4243L92.3655 42.4305ZM95.2139 61.7515C98.0095 61.3394 100.034 60.2898 101.288 58.6027C102.538 56.895 102.966 54.7054 102.573 52.034C102.176 49.3419 101.12 47.3499 99.4065 46.058C97.7134 44.763 95.4793 44.3201 92.7044 44.7292L88.7905 45.3062L91.3 62.3285L95.2139 61.7515Z" fill="#123A2B"/>
</svg>
