<svg width="53" height="55" viewBox="0 0 53 55" fill="none" xmlns="http://www.w3.org/2000/svg">
<path d="M0.305958 20.4439C-0.339543 19.2937 0.0696613 17.8379 1.21994 17.1924L31.3115 0.305958C32.4618 -0.339543 33.9176 0.0696613 34.5631 1.21994L52.3113 32.8472C52.7072 33.5528 52.719 34.4109 52.3426 35.1271L42.7749 53.3322C42.3364 54.1665 41.4483 54.6649 40.5077 54.6045L19.9838 53.2858C19.1764 53.2339 18.4501 52.7768 18.0542 52.0712L0.305958 20.4439Z" fill="#F1DDC1"/>
<path d="M2.02861 30.4626C1.38311 29.3123 1.79232 27.8566 2.9426 27.2111L38.9621 6.99806C40.1124 6.35256 41.5682 6.76176 42.2137 7.91204L48.3159 18.7862C48.9614 19.9365 48.5522 21.3923 47.4019 22.0378L11.3824 42.2508C10.2321 42.8963 8.77635 42.4871 8.13085 41.3368L2.02861 30.4626Z" fill="#F7E8D3"/>
</svg>
